# xmcd CD database file
#
# Track frame offsets:
#	150
#	19945
#	37709
#	56541
#	73566
#	89513
#	105425
#	126916
#	142731
#	162489
#	181142
#	202838
#	221798
#	244319
#	265897
#
# Disc length: 3733 seconds
#
# Revision: 2
# Processed by: cddbd v1.5.2PL0 Copyright (c) Steve Scherf et al.
# Submitted via: jetAudio 7
#
DISCID=ce0e930f
DTITLE=Ms. Dynamite - Judgement Days (Limited Edition)
DYEAR=2005
DGENRE=R&B/Soul
TTITLE0=Ms. Dynamite - Judgement Day
TTITLE1=Ms. Dynamite - Father
TTITLE2=Ms. Dynamite (Feat. Sincere) - Put Your Gun Away
TTITLE3=Ms. Dynamite - Back Then
TTITLE4=Ms. Dynamite - Fall In Love Again
TTITLE5=Ms. Dynamite - Not Today
TTITLE6=Ms. Dynamite (Feat. Lil' Wayne) - You Don't Have To Cry
TTITLE7=Ms. Dynamite - Unbreakable
TTITLE8=Ms. Dynamite - Pain
TTITLE9=Ms. Dynamite - Shavaar
TTITLE10=Ms. Dynamite (Feat. Assassin) - Self Destruct
TTITLE11=Ms. Dynamite - Gotta Let It Go
TTITLE12=Ms. Dynamite (Feat. Chink Santana) - She Don't Live Here Anymo
TTITLE12=re
TTITLE13=Ms. Dynamite - Mr Prime Minister
TTITLE14=Ms. Dynamite - Redemption Song
EXTD=
EXTT0=
EXTT1=
EXTT2=
EXTT3=
EXTT4=
EXTT5=
EXTT6=
EXTT7=
EXTT8=
EXTT9=
EXTT10=
EXTT11=
EXTT12=
EXTT13=
EXTT14=
PLAYORDER=
